<svg width="137" height="136" viewBox="0 0 137 136" fill="none" xmlns="http://www.w3.org/2000/svg">
<path d="M117.088 111.105L91.0349 124.605C89.6755 125.31 89.7922 127.291 91.2248 127.831L110.782 135.201C114.052 136.434 117.6 134.224 117.935 130.745L119.663 112.845C119.797 111.45 118.333 110.46 117.088 111.105Z" fill="white"/>
<path d="M120.051 29.0802V98.6691C120.051 101.522 120.056 103.828 119.321 103.828L112.137 18.2466L112.086 18.4802C117.734 18.7627 120.051 23.4248 120.051 29.0802Z" fill="white"/>
<path d="M126.607 98.3294L123.113 100.017V24.0215L127.799 24.8607C133.333 25.8518 137.518 34.8205 136.849 40.4031L129.567 94.1821C129.352 95.9789 128.236 97.5423 126.607 98.3294Z" fill="white"/>
<path d="M6.09687 82.9849L78.4885 120.904C79.9859 121.689 81.7671 121.713 83.2852 120.969L113.689 106.077C115.691 105.097 116.867 102.969 116.632 100.752L111.859 55.7478L107.564 15.2529C107.052 10.4281 103.334 6.56462 98.5322 5.86872L58.417 0.0549213C56.7603 -0.185192 55.0873 0.370573 53.9035 1.55433L48.8015 6.65621C47.6235 7.83439 45.9602 8.39081 44.3104 8.15879L6.04578 2.77783C2.75414 2.31495 -0.147883 4.9577 0.0058433 8.27819L3.25822 78.5294C3.34544 80.4135 4.42612 82.1096 6.09687 82.9849Z" fill="white"/>
</svg>
